<?xml version="1.0" standalone="no"?>
<!DOCTYPE svg PUBLIC "-//W3C//DTD SVG 20010904//EN"
 "http://www.w3.org/TR/2001/REC-SVG-20010904/DTD/svg10.dtd">
<svg version="1.0" xmlns="http://www.w3.org/2000/svg"
 width="1000.000000pt" height="1000.000000pt" viewBox="0 0 1000.000000 1000.000000"
 preserveAspectRatio="xMidYMid meet">
<metadata>
Created by potrace 1.14, written by Peter Selinger 2001-2017
</metadata>
<g transform="translate(0.000000,1000.000000) scale(0.100000,-0.100000)"
fill="#000000" stroke="none">
<path d="M1265 9955 c-52 -45 -55 -47 -92 -74 l-31 -24 -44 35 c-162 129 -331
86 -463 -118 -34 -53 -84 -161 -103 -224 -20 -63 -50 -184 -57 -227 -4 -27
-12 -43 -21 -43 -8 0 -14 -4 -14 -8 0 -5 -36 -37 -80 -73 -86 -68 -84 -64 -54
-137 l14 -34 40 32 c22 17 42 36 45 41 4 5 14 13 23 18 16 9 18 -3 18 -162 0
-95 1 -205 3 -244 2 -41 -1 -78 -7 -85 -20 -25 -102 -195 -145 -303 -143 -353
-215 -654 -272 -1134 -26 -226 -27 -856 0 -1011 2 -14 6 -52 9 -85 5 -54 25
-196 41 -285 39 -220 139 -583 200 -725 7 -16 22 -52 33 -80 11 -27 38 -88 60
-135 32 -68 41 -101 46 -165 4 -44 9 -93 11 -110 2 -16 14 -122 25 -235 11
-113 23 -227 27 -255 3 -27 7 -63 8 -80 9 -124 18 -165 36 -165 20 0 24 18 45
195 1 17 5 51 8 77 4 27 8 69 11 95 3 27 8 58 10 71 3 12 8 52 11 89 6 76 11
86 26 58 25 -43 259 -265 281 -265 7 0 4 -153 -8 -410 -6 -120 -19 -218 -49
-370 -21 -104 -81 -324 -135 -491 -35 -110 -37 -125 -15 -133 21 -8 24 -8 24
3 0 5 16 44 36 88 20 43 47 102 60 131 13 29 24 54 24 57 0 2 16 38 35 79 19
42 35 81 35 86 0 6 5 10 10 10 6 0 10 -28 11 -62 0 -35 2 -88 4 -118 4 -65 17
-338 16 -362 0 -15 37 -34 41 -20 2 9 4 40 12 157 4 55 9 118 11 140 10 124
18 388 15 510 -6 281 -5 613 2 620 4 4 35 -4 70 -18 35 -14 79 -28 99 -31 55
-8 69 -16 70 -40 1 -11 2 -39 4 -61 1 -22 5 -94 9 -161 4 -66 8 -131 10 -145
3 -13 7 -69 11 -124 6 -96 8 -130 19 -240 3 -27 8 -81 11 -120 3 -38 8 -90 11
-115 3 -25 7 -65 9 -90 3 -25 7 -65 11 -90 3 -25 7 -65 10 -90 2 -25 6 -58 9
-75 2 -16 9 -70 15 -120 6 -49 13 -106 16 -125 10 -65 14 -95 19 -120 2 -14 7
-47 10 -75 3 -27 8 -57 10 -65 6 -21 15 -70 20 -105 8 -65 76 -389 104 -496
149 -573 443 -1090 761 -1339 156 -123 358 -207 565 -235 78 -11 323 -13 395
-4 36 5 81 11 100 13 73 10 201 37 240 51 22 8 40 12 40 10 0 -2 18 2 40 10
22 8 40 12 40 8 0 -3 6 -1 13 4 6 6 30 16 52 23 71 22 208 81 298 128 78 39
273 163 287 181 3 3 25 22 50 42 64 52 157 144 215 214 28 33 53 62 58 63 4 2
7 7 7 12 0 4 16 32 36 61 31 45 81 144 124 244 32 75 126 408 154 547 26 127
107 404 148 508 30 75 160 442 181 512 6 21 15 38 19 38 4 0 8 7 8 16 0 17 55
126 80 159 36 46 98 104 130 120 95 49 222 50 345 4 47 -18 224 -114 235 -128
3 -4 25 -22 50 -41 194 -151 284 -289 440 -675 40 -99 79 -198 88 -220 73
-179 296 -542 464 -756 75 -96 192 -218 258 -271 112 -88 409 -258 452 -258 8
0 18 -4 24 -8 8 -8 125 -47 131 -45 2 1 29 -5 60 -12 123 -29 288 -14 431 39
144 53 341 188 479 328 309 314 492 670 625 1218 38 159 33 133 73 355 35 194
44 244 50 305 2 19 9 62 14 95 6 33 13 80 15 105 5 44 13 114 21 175 2 17 8
75 14 130 10 95 13 127 26 290 3 39 8 90 10 115 8 83 16 194 20 280 2 47 5 85
5 85 1 0 3 36 5 80 3 44 7 121 10 170 11 205 18 531 19 865 1 349 1 355 -19
355 -11 0 -20 -4 -21 -10 0 -12 -17 -148 -19 -155 0 -3 -4 -32 -9 -65 -4 -33
-16 -114 -26 -180 -10 -66 -21 -138 -24 -160 -3 -22 -8 -51 -10 -65 -3 -14 -7
-43 -11 -65 -3 -22 -17 -107 -31 -190 -14 -82 -27 -163 -30 -180 -14 -84 -87
-461 -119 -610 -20 -93 -38 -178 -40 -189 -47 -220 -189 -747 -240 -888 -9
-24 -18 -50 -20 -58 -5 -20 -53 -149 -64 -175 -5 -11 -21 -51 -37 -90 -98
-242 -262 -495 -422 -649 -87 -83 -228 -183 -272 -191 -3 -1 -21 -8 -40 -17
-62 -27 -167 -41 -251 -34 -177 15 -334 104 -451 257 -12 17 -28 36 -33 42
-61 72 -174 309 -270 569 -26 68 -57 151 -71 185 -13 35 -36 93 -50 130 -49
126 -115 257 -207 410 -51 84 -97 161 -102 170 -6 10 -51 86 -100 168 -50 83
-92 155 -94 160 -13 30 -176 276 -249 374 -74 101 -219 257 -292 317 -68 54
-150 103 -250 148 -19 8 -74 24 -121 35 -130 30 -265 26 -424 -14 -41 -10
-225 -97 -225 -106 0 -4 -10 -11 -22 -14 -11 -4 -65 -51 -118 -104 -158 -158
-283 -368 -410 -696 -34 -88 -69 -174 -76 -192 -8 -17 -14 -36 -14 -42 0 -6
-4 -19 -10 -29 -5 -9 -27 -69 -49 -132 -45 -129 -62 -178 -148 -405 -65 -170
-78 -214 -149 -509 -91 -378 -135 -469 -307 -645 -39 -41 -113 -106 -162 -145
-93 -73 -105 -82 -165 -116 -19 -11 -42 -25 -50 -30 -31 -20 -157 -73 -210
-88 -199 -55 -377 -47 -527 24 -330 157 -633 680 -708 1224 -4 25 -8 56 -10
70 -2 14 -6 52 -10 85 -3 33 -8 78 -10 100 -23 207 -23 914 -1 1180 2 22 7 92
10 155 4 63 9 133 11 155 5 55 14 148 20 225 11 120 14 132 68 229 165 299
270 599 352 1001 22 108 27 138 41 243 3 23 7 49 9 57 2 8 7 47 10 87 4 40 8
85 10 100 24 189 24 718 0 928 -2 17 -6 56 -9 88 -13 140 -52 370 -87 517 -12
47 -22 93 -24 102 -24 118 -175 554 -206 594 -5 6 -2 53 5 105 24 156 34 294
35 457 1 69 -4 67 66 22 64 -41 65 -42 69 -28 2 7 9 28 15 47 6 19 11 37 11
42 0 4 -33 29 -72 55 -80 53 -101 71 -104 88 -1 6 -5 38 -9 71 -5 33 -9 62
-10 65 -1 3 -5 25 -9 50 -19 101 -73 240 -129 327 -134 210 -346 215 -529 13
l-47 -51 -85 57 c-48 31 -88 55 -91 52 -3 -2 -11 -26 -19 -51 l-14 -47 74 -52
74 -51 -21 -34 c-23 -36 -67 -126 -104 -209 -22 -49 -23 -50 -58 -46 -36 4
-36 4 -68 101 -37 113 -105 257 -152 320 -17 23 -16 24 3 38 11 8 37 30 58 49
20 19 40 34 43 34 17 0 17 34 -1 75 -11 25 -21 45 -22 45 -2 0 -21 -16 -43
-35z"/>
</g>
</svg>
